<?xml version="1.0"?>
<svg xmlns="http://www.w3.org/2000/svg" xmlns:xlink="http://www.w3.org/1999/xlink" xmlns:svgjs="http://svgjs.com/svgjs" version="1.1" width="512" height="512" x="0" y="0" viewBox="0 0 512 512" style="enable-background:new 0 0 512 512" xml:space="preserve" class=""><g>
<g xmlns="http://www.w3.org/2000/svg">
	<g>
		<path d="M256.5,203.001c-28.948,0-52.5,23.552-52.5,52.5s23.552,52.5,52.5,52.5s52.5-23.552,52.5-52.5    S285.448,203.001,256.5,203.001z M256.5,293.001c-20.678,0-37.5-16.823-37.5-37.5s16.822-37.5,37.5-37.5s37.5,16.823,37.5,37.5    S277.178,293.001,256.5,293.001z" fill="#b9b7b7" data-original="#000000" style="" class=""/>
	</g>
</g>
<g xmlns="http://www.w3.org/2000/svg">
	<g>
		<path d="M507.193,188.386c-2.898-1.115-6.181-0.33-8.26,1.973c-14.344,15.884-30.707,29.589-48.761,40.854    c-5.902-60.833-33.391-117.31-78.201-160.133C324.011,25.246,261.297,0.003,195.385,0.001c-3.103,0-5.886,1.911-7,4.807    s-0.33,6.179,1.974,8.259c15.885,14.345,29.59,30.708,40.854,48.76C170.38,67.73,113.902,95.217,71.079,140.029    C25.245,187.991,0.002,250.704,0,316.616c0,3.103,1.911,5.886,4.807,7c2.898,1.115,6.181,0.33,8.26-1.973    c14.344-15.884,30.707-29.59,48.761-40.855c5.902,60.833,33.391,117.31,78.201,160.133    c47.961,45.834,110.675,71.077,176.587,71.079c3.103,0,5.886-1.911,7-4.807s0.33-6.179-1.974-8.259    c-15.885-14.345-29.59-30.708-40.854-48.76c60.833-5.903,117.311-33.391,160.134-78.202    c45.833-47.961,71.076-110.674,71.078-176.586C512,192.282,510.089,189.499,507.193,188.386z M267.836,436.084    c-2.587,0.127-4.927,1.58-6.187,3.844c-1.26,2.264-1.262,5.017-0.006,7.283c9.881,17.825,21.89,34.256,35.829,49.042    C177.6,486.85,81.896,389.905,75.918,267.837c-0.127-2.588-1.58-4.927-3.844-6.187c-1.134-0.631-2.391-0.947-3.647-0.947    c-1.253,0-2.505,0.313-3.636,0.94c-17.825,9.881-34.258,21.892-49.043,35.83C25.149,177.6,122.096,81.897,244.164,75.918    c2.587-0.127,4.927-1.58,6.187-3.844s1.262-5.017,0.006-7.283c-9.881-17.825-21.89-34.256-35.829-49.042    C334.4,25.151,430.104,122.097,436.082,244.165c0.127,2.588,1.58,4.927,3.844,6.187c2.264,1.26,5.018,1.262,7.283,0.006    c17.826-9.881,34.258-21.892,49.043-35.83C486.851,334.4,389.904,430.105,267.836,436.084z" fill="#b9b7b7" data-original="#000000" style="" class=""/>
	</g>
</g>
<g xmlns="http://www.w3.org/2000/svg">
	<g>
		<path d="M397.601,322.606c-1.592-2.897-4.893-4.408-8.126-3.722c-5.025,1.066-10.13,2.002-15.279,2.802    c11.363-20.114,17.305-42.701,17.305-66.186c0-1.174-0.016-2.344-0.044-3.45c-0.912-51.704-21.863-100.161-58.993-136.445    c-2.364-2.31-5.963-2.8-8.857-1.207c-2.896,1.593-4.407,4.895-3.722,8.128c1.066,5.025,2.003,10.13,2.803,15.279    c-20.116-11.364-42.704-17.305-66.188-17.305c-1.173,0-2.343,0.015-3.45,0.044c-51.703,0.913-100.16,21.864-136.445,58.993    c-2.31,2.364-2.8,5.961-1.207,8.857c1.594,2.896,4.896,4.406,8.128,3.721c5.025-1.066,10.13-2.002,15.279-2.802    c-11.364,20.115-17.305,42.702-17.305,66.187c0,1.174,0.016,2.344,0.044,3.449c0.09,5.125,0.398,10.398,0.918,15.672    c0.405,4.122,4.071,7.135,8.198,6.729c4.122-0.406,7.136-4.076,6.729-8.198c-0.479-4.875-0.765-9.741-0.85-14.527    c-0.026-1.039-0.04-2.08-0.04-3.125c0-25.848,8.095-50.471,23.409-71.207c1.762-2.385,1.952-5.584,0.486-8.162    c-1.465-2.578-4.317-4.05-7.263-3.756c-2.291,0.228-4.58,0.482-6.865,0.762c30.614-23.712,67.83-36.902,107.105-37.596    c1.04-0.026,2.081-0.04,3.127-0.04c25.848,0,50.471,8.095,71.208,23.409c2.383,1.76,5.581,1.953,8.162,0.487    c2.577-1.466,4.05-4.312,3.756-7.263c-0.228-2.291-0.481-4.58-0.762-6.865c23.712,30.614,36.902,67.829,37.596,107.107    c0.026,1.039,0.04,2.08,0.04,3.125c0,25.848-8.095,50.471-23.409,71.207c-1.762,2.385-1.952,5.584-0.486,8.162    c1.465,2.578,4.316,4.051,7.263,3.756c2.291-0.228,4.58-0.482,6.865-0.762c-30.614,23.712-67.83,36.902-107.105,37.596    c-1.04,0.026-2.081,0.04-3.127,0.04c-25.848,0-50.471-8.095-71.208-23.409c-2.385-1.761-5.583-1.953-8.162-0.487    c-2.577,1.466-4.05,4.312-3.756,7.263c0.226,2.269,0.478,4.536,0.754,6.8c-14.644-18.999-25.422-40.777-31.602-64.079    c-1.062-4.004-5.168-6.387-9.172-5.327c-4.004,1.062-6.389,5.168-5.326,9.172c9.051,34.128,27.208,65.237,52.509,89.962    c1.438,1.405,3.33,2.136,5.244,2.136c1.234,0,2.479-0.305,3.613-0.929c2.896-1.593,4.407-4.895,3.722-8.128    c-1.066-5.025-2.003-10.13-2.803-15.279c20.114,11.364,42.702,17.305,66.187,17.305c1.173,0,2.343-0.015,3.45-0.044    c51.703-0.913,100.16-21.864,136.445-58.993C398.704,329.099,399.194,325.502,397.601,322.606z" fill="#b9b7b7" data-original="#000000" style="" class=""/>
	</g>
</g>
<g xmlns="http://www.w3.org/2000/svg">
</g>
<g xmlns="http://www.w3.org/2000/svg">
</g>
<g xmlns="http://www.w3.org/2000/svg">
</g>
<g xmlns="http://www.w3.org/2000/svg">
</g>
<g xmlns="http://www.w3.org/2000/svg">
</g>
<g xmlns="http://www.w3.org/2000/svg">
</g>
<g xmlns="http://www.w3.org/2000/svg">
</g>
<g xmlns="http://www.w3.org/2000/svg">
</g>
<g xmlns="http://www.w3.org/2000/svg">
</g>
<g xmlns="http://www.w3.org/2000/svg">
</g>
<g xmlns="http://www.w3.org/2000/svg">
</g>
<g xmlns="http://www.w3.org/2000/svg">
</g>
<g xmlns="http://www.w3.org/2000/svg">
</g>
<g xmlns="http://www.w3.org/2000/svg">
</g>
<g xmlns="http://www.w3.org/2000/svg">
</g>
</g></svg>
