<?xml version="1.0"?>
<svg xmlns="http://www.w3.org/2000/svg" xmlns:xlink="http://www.w3.org/1999/xlink" xmlns:svgjs="http://svgjs.com/svgjs" version="1.1" width="512" height="512" x="0" y="0" viewBox="0 0 512.083 512.083" style="enable-background:new 0 0 512 512" xml:space="preserve" class=""><g><path xmlns="http://www.w3.org/2000/svg" d="m256.042 512.083c-.002 0 0 0 0 0-24.909 0-45.456-16.296-51.129-40.549l-13.964-59.691c-10.607-45.344-45.364-80.101-90.708-90.708l-59.691-13.964c-24.229-5.668-40.508-26.215-40.508-51.129s16.279-45.461 40.508-51.129l59.691-13.964c45.343-10.607 80.1-45.364 90.708-90.708l13.964-59.691c5.672-24.254 26.22-40.55 51.128-40.55 24.909 0 45.457 16.295 51.13 40.549l13.963 59.691c10.607 45.343 45.364 80.1 90.708 90.708l59.691 13.964c24.229 5.668 40.508 26.215 40.508 51.129s-16.279 45.461-40.508 51.129l-59.691 13.964c-45.343 10.607-80.1 45.364-90.708 90.708l-13.963 59.691c-5.673 24.253-26.223 40.55-51.129 40.55zm0-472.083c-2.983 0-10.142.941-12.181 9.66l-13.964 59.692c-6.867 29.356-21.766 56.142-43.084 77.46s-48.104 36.217-77.46 43.084l-59.692 13.964c-8.682 2.031-9.619 9.195-9.619 12.181s.938 10.15 9.619 12.181l59.691 13.964c29.356 6.867 56.142 21.766 77.46 43.084s36.217 48.104 43.084 77.46l13.964 59.691c2.04 8.719 9.198 9.66 12.181 9.66s10.142-.941 12.182-9.661l13.963-59.691c6.867-29.356 21.766-56.142 43.084-77.46 21.319-21.318 48.104-36.217 77.46-43.084l59.691-13.964c8.682-2.031 9.619-9.195 9.619-12.181s-.938-10.15-9.619-12.181l-59.691-13.964c-29.356-6.867-56.142-21.766-77.46-43.084-21.318-21.319-36.217-48.104-43.084-77.46l-13.963-59.691c-2.04-8.719-9.199-9.66-12.181-9.66zm121.982 64.045c-3.165 0-6.376-.753-9.366-2.342-9.754-5.182-13.461-17.291-8.279-27.045l34-64c5.183-9.754 17.29-13.46 27.045-8.279 9.754 5.182 13.461 17.291 8.279 27.045l-34 64c-3.593 6.765-10.518 10.621-17.679 10.621zm-276.32 39.38c5.182-9.755 1.476-21.863-8.279-27.045l-64-34c-9.755-5.181-21.863-1.476-27.045 8.279s-1.476 21.863 8.279 27.045l64 34c2.99 1.588 6.201 2.342 9.366 2.342 7.16-.001 14.085-3.857 17.679-10.621zm16 358 34-64c5.182-9.755 1.476-21.863-8.279-27.045s-21.863-1.476-27.045 8.279l-34 64c-5.182 9.755-1.476 21.863 8.279 27.045 2.99 1.588 6.201 2.342 9.366 2.342 7.16-.001 14.085-3.857 17.679-10.621zm392-80c5.182-9.755 1.476-21.863-8.279-27.045l-64-34c-9.755-5.181-21.863-1.476-27.045 8.279s-1.476 21.863 8.279 27.045l64 34c2.99 1.588 6.201 2.342 9.366 2.342 7.16-.001 14.085-3.857 17.679-10.621zm-366.164-320.783c9.721-5.246 13.348-17.379 8.102-27.099l-34-63c-5.246-9.721-17.377-13.348-27.099-8.102-9.721 5.246-13.348 17.379-8.102 27.099l34 63c3.616 6.7 10.504 10.505 17.618 10.505 3.207 0 6.461-.773 9.481-2.403zm277.885 409.062c9.754-5.182 13.461-17.291 8.279-27.045l-34-64c-5.182-9.755-17.29-13.462-27.045-8.279-9.754 5.182-13.461 17.291-8.279 27.045l34 64c3.594 6.765 10.518 10.621 17.679 10.621 3.164-.001 6.376-.754 9.366-2.342zm6.634-355.659c-7.161 0-14.085-3.855-17.679-10.621-5.182-9.755-1.476-21.863 8.279-27.045l64-34c9.756-5.182 21.863-1.476 27.045 8.279s1.476 21.863-8.279 27.045l-64 34c-2.99 1.589-6.202 2.342-9.366 2.342zm-398.634 275.659 64-34c9.754-5.182 13.461-17.291 8.279-27.045-5.182-9.755-17.29-13.461-27.045-8.279l-64 34c-9.754 5.182-13.461 17.291-8.279 27.045 3.594 6.765 10.518 10.621 17.679 10.621 3.164-.001 6.376-.754 9.366-2.342z" fill="#b9b7b7" data-original="#000000" style="" class=""/></g></svg>
