<?xml version="1.0"?>
<svg xmlns="http://www.w3.org/2000/svg" xmlns:xlink="http://www.w3.org/1999/xlink" xmlns:svgjs="http://svgjs.com/svgjs" version="1.1" width="512" height="512" x="0" y="0" viewBox="0 0 511.999 511.999" style="enable-background:new 0 0 512 512" xml:space="preserve" class=""><g><g xmlns="http://www.w3.org/2000/svg"><path d="m391.748 418.078c2.248 3.48 6.893 4.479 10.369 2.23l101.748-65.732c3.27-2.113 5.552-5.521 6.26-9.35.709-3.829-.203-7.828-2.502-10.971l-48.902-66.877c-.003-.004-.005-.009-.008-.013l-16.677-22.808c-2.446-3.344-7.138-4.073-10.481-1.627-3.344 2.445-4.072 7.137-1.628 10.481l11.987 16.393-178.414 115.262v-89.08c.065-.041.131-.083.196-.124.004-.003.009-.005.014-.008l133.967-86.549 11.554 15.802c2.446 3.344 7.138 4.072 10.481 1.627s4.072-7.137 1.628-10.481l-15.732-21.517c-.003-.004-.007-.008-.01-.013l-53.098-72.613-85.031-116.288c-2.499-3.416-6.424-5.517-10.624-5.771-.278-.031-.559-.051-.845-.051s-.567.02-.845.051c-4.201.254-8.126 2.355-10.624 5.771l-85.032 116.288-53.106 72.627-53.105 72.627-48.912 66.89c-2.298 3.143-3.21 7.141-2.501 10.97.708 3.829 2.989 7.237 6.26 9.351l240.154 155.149c2.302 1.488 4.966 2.274 7.708 2.275h.002.002c2.738-.001 5.402-.786 7.708-2.274l109.011-70.425c3.479-2.248 4.478-6.891 2.229-10.37-2.246-3.479-6.89-4.476-10.37-2.23l-101.079 65.302v-89.081c.07-.044.14-.088.21-.133l187.072-120.856 44.237 60.498-101.042 65.277c-3.478 2.249-4.477 6.892-2.229 10.371zm-128.248-392.27 72.202 98.741-72.202 46.646zm0 163.243c.07-.044.14-.088.21-.133l80.86-52.24 44.238 60.498-125.308 80.955zm-15.001 302.951-231.52-149.571 44.237-60.499 187.071 120.855c.07.045.14.09.211.134v89.081zm0-106.936-178.414-115.263 44.237-60.498 133.968 86.549c.069.045.139.089.209.133zm.001-106.934-23.313-15.062-101.996-65.894 44.238-60.498 80.859 52.239c.07.045.141.09.212.134zm0-106.936-7.558-4.883-64.646-41.764 72.204-98.743z" fill="#b9b7b7" data-original="#000000" style=""/></g></g></svg>
