<?xml version="1.0"?>
<svg xmlns="http://www.w3.org/2000/svg" xmlns:xlink="http://www.w3.org/1999/xlink" xmlns:svgjs="http://svgjs.com/svgjs" version="1.1" width="512" height="512" x="0" y="0" viewBox="0 0 60 60" style="enable-background:new 0 0 512 512" xml:space="preserve" class=""><g><g xmlns="http://www.w3.org/2000/svg" id="Page-1" fill="none" fill-rule="evenodd"><g id="004---Mail" fill="rgb(0,0,0)" fill-rule="nonzero"><path id="Shape" d="m48 10h-11v-2h8c1.1045695 0 2-.8954305 2-2v-4c0-1.1045695-.8954305-2-2-2h-8c-1.1045695 0-2 .8954305-2 2v8h-15c-5.8648557-.0286381-10.87973338 4.2119147-11.826 10h-5.174c-1.65685425 0-3 1.3431458-3 3v14c0 1.6568542 1.34314575 3 3 3h27v18c.0656329 1.1638021 1.0577324 2.056781 2.222 2h8.556c1.1642676.056781 2.1563671-.8361979 2.222-2v-18h15c1.1045695 0 2-.8954305 2-2v-16c-.0071648-6.624447-5.375553-11.9928352-12-12zm-11-8h8v4h-8zm-17 10c5.5203344.0060624 9.9939376 4.4796656 10 10v16h-2.184c.1184378-.320257.1806856-.6585603.184-1v-14c0-1.6568542-1.3431458-3-3-3h-14.8c.9277244-4.6704133 5.0384086-8.0260738 9.8-8zm-10.279 18.311-7.721 6.535v-13.069zm1.548 1.31.793.67c1.1202.9401918 2.7538.9401918 3.874 0l.8-.672 7.533 6.381h-20.538zm14.731-7.844v13.069l-7.721-6.535zm-1-1.777-10.358 8.769c-.3718303.3121784-.9141697.3121784-1.286 0l-10.356-8.769zm16.021 35.922c-.0680521.0561052-.1550075.0840168-.243.078h-8.556c-.0672538-.0045065-.1340943-.0138642-.2-.028-.012 0-.019 0-.021.013v-17.985h3v15c0 .5522847.4477153 1 1 1s1-.4477153 1-1v-15h4zm16.979-19.922h-26v-16c-.0031662-4.0248028-2.0238304-7.7799864-5.381-10h21.381c5.5203344.0060624 9.9939376 4.4796656 10 10z" fill="#e2443b" data-original="#000000" style="" class=""/><path id="Shape" d="m46 28c-1.1045695 0-2 .8954305-2 2v4c0 1.1045695.8954305 2 2 2h8c1.1045695 0 2-.8954305 2-2v-4c0-1.1045695-.8954305-2-2-2zm0 6v-4h8v4z" fill="#e2443b" data-original="#000000" style="" class=""/><path id="Shape" d="m11 26h6c.5522847 0 1-.4477153 1-1s-.4477153-1-1-1h-6c-.5522847 0-1 .4477153-1 1s.4477153 1 1 1z" fill="#e2443b" data-original="#000000" style="" class=""/></g></g></g></svg>
