<?xml version="1.0"?>
<svg xmlns="http://www.w3.org/2000/svg" xmlns:xlink="http://www.w3.org/1999/xlink" xmlns:svgjs="http://svgjs.com/svgjs" version="1.1" width="512" height="512" x="0" y="0" viewBox="0 0 512 512.25572" style="enable-background:new 0 0 512 512" xml:space="preserve" class=""><g><path xmlns="http://www.w3.org/2000/svg" d="m354.519531 192.128906 39.816407-23.042968c12.03125 12.429687 31.425781 13.972656 45.265624 3.59375 13.839844-10.375 17.796876-29.425782 9.234376-44.457032s-26.964844-21.34375-42.949219-14.730468c-15.984375 6.609374-24.554688 24.078124-19.996094 40.765624l-31.371094 18.117188v-45.492188c.003907-11.832031-6.125-22.820312-16.1875-29.039062s-22.628906-6.785156-33.210937-1.492188l-70.066406 35.035157v-64.203125c16.640624-4.296875 27.492187-20.300782 25.328124-37.351563-2.167968-17.050781-16.675781-29.832031-33.863281-29.832031s-31.695312 12.78125-33.859375 29.832031c-2.167968 17.050781 8.683594 33.054688 25.328125 37.351563v72.738281l-94.140625 47.085937-56.6875-32.726562c4.441406-16.457031-4.039062-33.652344-19.800781-40.144531-15.761719-6.496094-33.894531-.265625-42.335937 14.542969-8.445313 14.808593-4.570313 33.582031 9.046874 43.839843 13.617188 10.253907 32.730469 8.796875 44.632813-3.40625l46.847656 27.042969-58.878906 29.457031c-11.566406 5.78125-18.875 17.601563-18.875 30.53125 0 12.929688 7.308594 24.75 18.875 30.53125l58.878906 29.457031-46.933593 27.09375c-12.042969-12.261718-31.324219-13.660156-45.007813-3.257812-13.6835938 10.402344-17.5 29.355469-8.90625 44.242188 8.59375 14.882812 26.917969 21.058593 42.765625 14.40625 15.851562-6.648438 24.285156-24.046876 19.683594-40.609376l56.695312-32.761718 94.140625 47.089844v72.738281c-16.644531 4.296875-27.496093 20.296875-25.328125 37.347656 2.164063 17.054687 16.671875 29.832031 33.859375 29.832031s31.695313-12.777344 33.863281-29.832031c2.164063-17.050781-8.6875-33.050781-25.328124-37.347656v-64.207031l70.066406 35.039062c10.582031 5.289062 23.148437 4.726562 33.210937-1.496094 10.0625-6.21875 16.191407-17.207031 16.1875-29.035156v-45.492188l31.371094 18.109376c-4.601563 16.558593 3.832031 33.957031 19.679687 40.609374 15.851563 6.648438 34.171876.476563 42.765626-14.410156 8.597656-14.882812 4.78125-33.839844-8.902344-44.238281-13.683594-10.402344-32.96875-9.007813-45.011719 3.257813l-39.902344-23.039063zm55.613281-61.671875c5.976563-3.460937 13.453126-2.976562 18.933594 1.226563 5.484375 4.203125 7.890625 11.296875 6.101563 17.96875-1.792969 6.671875-7.429688 11.605468-14.277344 12.496094-6.851563.894531-13.5625-2.429688-17.003906-8.421876-4.714844-8.160156-1.917969-18.597656 6.246093-23.3125zm-200.679687-96.195312c0-9.425781 7.640625-17.066407 17.066406-17.066407s17.066407 7.640626 17.066407 17.066407-7.640626 17.066406-17.066407 17.066406-17.066406-7.640625-17.066406-17.066406zm-183.609375 125.710937c-5.980469-3.449218-9.289062-10.164062-8.390625-17.007812.902344-6.84375 5.835937-12.46875 12.503906-14.257813 6.667969-1.785156 13.757813.621094 17.957031 6.097657 4.203126 5.476562 4.691407 12.945312 1.242188 18.921874-2.242188 3.945313-5.972656 6.824219-10.351562 7.996094-4.382813 1.175782-9.050782.546875-12.960938-1.75zm17.066406 221.867188c-5.980468 3.453125-13.449218 2.964844-18.925781-1.238282-5.476563-4.203124-7.882813-11.289062-6.09375-17.957031 1.785156-6.667969 7.414063-11.601562 14.257813-12.503906s13.554687 2.410156 17.007812 8.386719c4.710938 8.164062 1.914062 18.601562-6.246094 23.3125zm200.675782 96.15625c0 9.425781-7.640626 17.066406-17.066407 17.066406s-17.066406-7.640625-17.066406-17.066406c0-9.425782 7.640625-17.066406 17.066406-17.066406s17.066407 7.640624 17.066407 17.066406zm175.105468-128c7.722656.011718 14.472656 5.203125 16.464844 12.667968 1.988281 7.460938-1.277344 15.328126-7.96875 19.183594-6.691406 3.855469-15.136719 2.738282-20.59375-2.722656s-6.570312-13.910156-2.707031-20.597656c3.042969-5.296875 8.695312-8.554688 14.804687-8.53125zm-81.238281-39.671875-93.867187-54.195313 93.867187-54.195312zm-24.746094-198.707031c5.285157-2.667969 11.582031-2.382813 16.605469.75 5.046875 3.089843 8.117188 8.589843 8.097656 14.507812v55.355469l-102.355468 59.117187v-90.878906zm-94.71875 47.382812v82.347656l-76.433593-44.101562zm-163.722656 112.394531c-5.78125-2.890625-9.4375-8.800781-9.4375-15.265625s3.65625-12.375 9.4375-15.265625l69-34.492187 86.1875 49.757812-86.1875 49.757813zm87.289063 43.613281 76.433593-44.101562v82.347656zm195.898437 70.367188c.007813 5.925781-3.058594 11.4375-8.105469 14.550781-5.046875 3.109375-11.347656 3.382813-16.640625.714844l-77.652343-38.851563v-90.882812l102.398437 59.121094zm0 0" fill="#110b26" data-original="#000000" style="" class=""/></g></svg>
