<?xml version="1.0"?>
<svg xmlns="http://www.w3.org/2000/svg" xmlns:xlink="http://www.w3.org/1999/xlink" xmlns:svgjs="http://svgjs.com/svgjs" version="1.1" width="512" height="512" x="0" y="0" viewBox="0 0 24 24" style="enable-background:new 0 0 512 512" xml:space="preserve" class=""><g><path xmlns="http://www.w3.org/2000/svg" d="m19 9.5c0 5.24-4.26 9.5-9.5 9.5-3.37 0-6.33-1.76-8.02-4.41-.37-.58-.68-1.21-.91-1.86-.37-1.01-.57-2.1-.57-3.23 0-5.24 4.26-9.5 9.5-9.5 2.92 0 5.53 1.32 7.27 3.39l-1.47 1.37c-1.37-1.69-3.46-2.76-5.8-2.76-4.14 0-7.5 3.36-7.5 7.5v.04c0 .62.08 1.21.23 1.78.17.7.44 1.35.8 1.95.26.44.55.85.88 1.22 1.37 1.54 3.37 2.51 5.59 2.51 3.96 0 7.21-3.08 7.47-6.97l.91-.85 1.03-.95c.06.42.09.84.09 1.27z" fill="#007182" data-original="#000000" style=""/><path xmlns="http://www.w3.org/2000/svg" d="m23 24c-.256 0-.512-.098-.707-.293l-7.386-7.386c-.391-.391-.391-1.023 0-1.414s1.023-.391 1.414 0l7.386 7.386c.391.391.391 1.023 0 1.414-.195.195-.451.293-.707.293z" fill="#007182" data-original="#000000" style=""/><path xmlns="http://www.w3.org/2000/svg" d="m23.68 1.73-5.16 4.81-1.66 1.54-4.18 3.9c-.37.35-.95.36-1.34.02l-3.35-2.93-4.96 4.2c-.36-.6-.63-1.25-.8-1.95l5.12-4.33c.38-.32.94-.32 1.31.01l3.32 2.9 4.16-3.87 1.52-1.42 4.66-4.34c.4-.38 1.04-.36 1.41.05.38.4.36 1.03-.05 1.41z" fill="#007182" data-original="#000000" style=""/><path xmlns="http://www.w3.org/2000/svg" d="m23 5.5c-.26 0-.516-.102-.707-.293l-3.5-3.5c-.286-.286-.372-.716-.217-1.09.155-.373.52-.617.924-.617h3.5c.552 0 1 .448 1 1v3.5c0 .404-.244.769-.617.924-.124.051-.254.076-.383.076z" fill="#007182" data-original="#000000" style=""/></g></svg>
