<?xml version="1.0"?>
<svg xmlns="http://www.w3.org/2000/svg" xmlns:xlink="http://www.w3.org/1999/xlink" xmlns:svgjs="http://svgjs.com/svgjs" version="1.1" width="512" height="512" x="0" y="0" viewBox="0 0 512 512" style="enable-background:new 0 0 512 512" xml:space="preserve" class=""><g><g xmlns="http://www.w3.org/2000/svg"><path d="m213.098 208.661c6.293 3.345 13.181 5.953 20.438 7.682 7.03 1.701 14.57 2.608 22.479 2.608 7.88 0 15.42-.907 22.451-2.608 7.171-1.729 13.918-4.28 20.154-7.512 3.997-2.353 9.184-.51 10.8 3.883 5.839 15.874 17.915 28.63 32.202 37.305 16.271 9.864 35.461 14.598 54.397 14.598 25.228 0 47.99-8.305 64.403-21.685 15.959-13.04 25.852-30.926 25.852-50.628 0-14.825-5.584-28.63-15.137-40.082-10.063-12.047-24.52-21.572-41.556-27.071-3.147-.964-5.357-3.94-5.244-7.37.312-7.965-1.219-15.562-4.252-22.592-3.203-7.484-8.107-14.259-14.258-20.098-7.314-6.945-16.441-12.614-26.787-16.526-10.035-3.771-21.232-5.868-33.109-5.868-3.969 0-7.937.227-11.906.708-2.948.567-6.094-.68-7.795-3.401-6.491-10.46-16.498-19.275-28.772-25.455-12.018-6.066-26.192-9.553-41.442-9.553-15.279 0-29.452 3.487-41.471 9.553-12.217 6.151-22.195 14.91-28.715 25.342-1.559 2.523-4.365 3.968-7.37 3.571-4.11-.51-8.249-.765-12.387-.765-6.945 0-13.634.708-19.927 2.041-6.52 1.39-12.699 3.43-18.482 6.038-3.77 1.701-8.221.028-9.921-3.742-1.701-3.771 0-8.192 3.77-9.894 6.69-3.061 13.946-5.442 21.572-7.03 7.398-1.588 15.108-2.41 22.989-2.41 3.203 0 6.435.142 9.609.426 7.88-11.027 18.936-20.325 32.117-26.958 14.085-7.086 30.583-11.168 48.214-11.168 17.603 0 34.101 4.082 48.189 11.168 13.181 6.633 24.236 15.931 32.117 26.958 3.175-.284 6.406-.426 9.609-.426 13.635 0 26.645 2.466 38.381 6.86 12.246 4.62 23.074 11.367 31.833 19.673 7.597 7.228 13.691 15.704 17.716 25.03 3.146 7.343 5.045 15.194 5.414 23.443 17.518 6.548 32.513 16.98 43.342 29.963 11.764 14.117 18.652 31.21 18.652 49.635 0 24.407-12.019 46.376-31.408 62.222-18.992 15.506-45.099 25.087-73.842 25.087-15.874 0-30.955-2.948-44.476-8.165-5.528 4.026-9.808 7.484-13.436 11.368-4.252 4.564-7.767 9.949-11.65 17.83-2.438 4.96-4.507 10.318-6.208 16.044-1.644 5.641-2.891 11.509-3.685 17.603-.511 4.082-4.252 6.973-8.334 6.463-4.11-.51-7.002-4.252-6.491-8.362.907-6.973 2.324-13.634 4.167-19.927 1.899-6.435 4.28-12.586 7.144-18.369 4.592-9.354 8.872-15.846 14.117-21.459 2.778-3.005 5.754-5.697 9.156-8.419-.822-.481-1.616-.964-2.41-1.445-6.435-3.884-12.302-8.391-17.518-13.38-4.053 3.827-7.88 8.051-11.452 12.643-5.131 6.577-9.638 13.805-13.408 21.544-1.757 3.543-3.373 7.228-4.876 11.112-1.389 3.6-2.664 7.313-3.77 11.083-.709 3.43-3.742 6.009-7.37 6.009-4.139 0-7.483-3.373-7.483-7.512v-70.981c-3.969.425-7.965.652-12.019.652-4.082 0-8.079-.227-12.047-.652v70.981c0 3.231-2.154 6.236-5.414 7.172-3.968 1.163-8.107-1.134-9.27-5.102-1.134-3.941-2.466-7.852-3.94-11.65-1.503-3.884-3.118-7.568-4.876-11.112-3.77-7.739-8.277-14.967-13.408-21.544-3.572-4.592-7.398-8.815-11.452-12.643-5.981 5.755-12.728 10.687-19.928 14.825 3.402 2.722 6.407 5.414 9.156 8.419 5.244 5.642 9.524 12.105 14.116 21.459 4.025 8.164 7.172 17.178 9.298 26.816 2.069 9.354 3.175 19.219 3.175 29.367v34.583c14.598.341 28.403 3.969 40.734 10.177 11.509 5.782 21.713 13.861 29.99 23.584 5.897-2.749 12.076-4.904 18.425-6.378v-44.957c0-4.138 3.345-7.512 7.483-7.512 4.167 0 7.512 3.374 7.512 7.512v42.69c2.098-.142 4.224-.198 6.35-.198 17.404 0 33.76 4.762 47.735 13.068 12.756 7.568 23.527 18.057 31.464 30.586 3.883-.907 7.909-1.36 11.906-1.36 14.542 0 27.723 5.811 37.389 15.222 9.694 9.439 15.817 22.535 16.186 37.049.085 4.195-3.373 7.653-7.512 7.653h-406.204c-4.563 0-7.512-3.628-7.512-7.936 0-16.3 6.605-31.068 17.292-41.755 10.687-10.659 25.455-17.263 41.754-17.263 5.017 0 10.063.624 14.91 1.899 1.077-2.892 2.324-5.726 3.685-8.504 2.523-5.131 5.527-10.035 8.901-14.627 2.466-3.316 7.143-3.997 10.459-1.559 3.317 2.466 4.025 7.143 1.559 10.46-2.834 3.855-5.357 7.965-7.483 12.331-2.466 5.018-3.515 9.44-5.471 14.202-1.559 3.827-5.924 5.641-9.751 4.082-5.329-2.182-11.055-3.288-16.809-3.288-12.161 0-23.159 4.933-31.153 12.898-6.378 6.378-10.828 14.74-12.331 24.066h389.735c-1.672-7.342-5.471-13.89-10.687-18.964-6.944-6.774-16.44-10.97-26.957-10.97-4.422 0-8.731.737-12.898 2.211-3.401 1.19-7.285-.227-9.071-3.487-6.775-12.416-16.838-22.819-28.999-30.048-11.764-6.973-25.483-10.97-40.138-10.97-6.605 0-13.352.822-19.758 2.466-6.463 1.673-12.614 4.139-18.311 7.313-3.26 1.871-7.455 1.049-9.751-2.041-7.512-10.091-17.32-18.397-28.687-24.123-10.885-5.471-23.216-8.561-36.312-8.561-7.455 0-14.882.992-22.053 3.005-7.2 2.041-14.004 5.074-20.296 8.929-3.515 2.183-8.135 1.077-10.318-2.466-2.154-3.515-1.049-8.135 2.466-10.289 7.398-4.564 15.477-8.135 24.094-10.573 4.365-1.247 8.873-2.154 13.436-2.778v-35.377c0-9.213-.963-18-2.749-26.136-1.871-8.476-4.649-16.385-8.135-23.499-3.883-7.881-7.398-13.238-11.65-17.83-3.628-3.884-7.909-7.37-13.436-11.368-13.521 5.216-28.602 8.165-44.476 8.165-28.744 0-54.851-9.582-73.843-25.087-19.389-15.846-31.408-37.814-31.408-62.222 0-18.425 6.888-35.518 18.652-49.635 10.829-12.983 25.824-23.415 43.342-29.963.34-7.229 1.814-14.173 4.309-20.721 3.26-8.533 8.249-16.413 14.542-23.33 2.75-3.061 7.484-3.288 10.545-.539 3.062 2.778 3.289 7.483.51 10.545-4.989 5.527-8.986 11.82-11.593 18.652-2.41 6.35-3.628 13.153-3.402 20.24.227 3.345-1.842 6.52-5.159 7.597-17.064 5.5-31.549 14.996-41.612 27.071-9.553 11.452-15.137 25.257-15.137 40.082 0 19.702 9.893 37.588 25.852 50.628 16.413 13.38 39.175 21.685 64.403 21.685 18.935 0 38.126-4.734 54.397-14.598 14.088-8.561 26.05-21.09 31.975-36.681 1.7-4.48 6.122-7.116 10.743-4.678zm-7.569 29.537c4.791 4.451 9.269 9.355 13.379 14.655 3.6 4.649 6.973 9.638 10.063 14.967v-37.22c-5.414-1.361-10.63-3.118-15.562-5.216-2.211 4.48-4.847 8.761-7.88 12.814zm100.942 0c-3.033-4.054-5.669-8.334-7.88-12.813-4.933 2.098-10.148 3.855-15.562 5.216v37.22c3.09-5.33 6.463-10.318 10.063-14.967 4.11-5.301 8.588-10.205 13.379-14.656z" fill="#b9b7b7" data-original="#000000" style="" class=""/></g></g></svg>
