<?xml version="1.0" encoding="utf-8"?>
<!-- Generator: Adobe Illustrator 20.0.0, SVG Export Plug-In . SVG Version: 6.00 Build 0)  -->
<svg version="1.1" id="Layer_1" xmlns="http://www.w3.org/2000/svg" xmlns:xlink="http://www.w3.org/1999/xlink" x="0px" y="0px"
	 viewBox="0 0 603.3 214.7" style="enable-background:new 0 0 603.3 214.7;" xml:space="preserve">
<style type="text/css">
	.st0{fill:#FF4800;}
	.st1{fill:#333333;}
</style>
<g>
	<g>
		<path class="st0" d="M156.4,25.9c2.2,16.9,9.7,52.9,13.1,68.1c0.9,4.3,1.9,8,2.8,9.5c4.7,8.1,8.5-2.7,8.5-2.7
			c14.7-43.9-8.5-72.2-15.9-79.8c-1.3-1.4-3.6-3.1-5.7-3.7c-3-0.9-3.5,0.8-3.5,2.2C155.8,20.9,156.3,24.8,156.4,25.9z M361.1,12.2
			c2.9,2.1,13,12.7,0,14.3c-18.6,2.2-54,3.5-112.7,52.6c-22.2,18.6-72,68.7-98.7,131c-0.3,0.8-1.2,1.2-2,1
			c-2.4-0.7-6.7-3.3-4.5-13.3c3-13.5,30-83.8,101.4-145.8C267.9,31.8,323.5-15.8,361.1,12.2z"/>
		<path class="st1" d="M32.4,112.2c2.9,0.6,5.4,0.9,9.2,0.9c14.7,0,24.7-9.5,24.7-21.5c0-10.8-7.7-14.7-17.6-14.7
			c-4.4,0-7.7,0.3-9.8,0.9L32.4,112.2z M24.1,65.2c6.2-1.5,15.4-2.4,24.4-2.4c9.5,0,19.4,2,26,7.2c5.9,4.5,9.3,11.1,9.3,20.2
			c0,12-5.7,21.8-12.9,27.5c-8.1,6.5-19.7,9.6-31.8,9.6c-3.6,0-6.8-0.5-9.5-0.8L22.3,165H5.1L24.1,65.2z"/>
		<path class="st1" d="M130.3,104.4c-1.8-0.5-4.1-0.8-7.2-0.8c-16.1,0-28.7,18.2-28.7,34.9c0,7.7,2.9,14,10.5,14
			c8.3,0,18.2-10.2,21.7-28.9L130.3,104.4z M123.3,165c0-4.4,0.6-10.2,1.2-16.4h-0.3c-7.2,13.4-17,18.1-26.3,18.1
			c-13.1,0-21.7-10.2-21.7-25c0-25,17.5-51.6,51.6-51.6c8,0,16.6,1.5,22.3,3.3l-7.7,38.2c-2.1,10.8-3.3,24.7-3,33.4H123.3z"/>
		<path class="st1" d="M249.6,136c0,10.1,5.3,17.2,14.3,17.2c13.1,0,21.8-18.1,21.8-32.7c0-7.5-3.5-16.9-14-16.9
			C257.8,103.6,249.6,122.3,249.6,136 M303.8,120.3c0,25-17.3,46.3-42.3,46.3c-18.5,0-29.9-12.8-29.9-30.3
			c0-24.8,17.3-46.3,42.3-46.3C293.6,90.1,303.8,104.2,303.8,120.3"/>
		<path class="st1" d="M307.1,165l9.5-50.6c1.8-8.7,2.9-16.4,3.8-22.7H336l-1.7,13.1h0.3c6.8-9.8,16.1-14.7,26.3-14.7
			c10.5,0,18.7,6.3,18.7,20.2c0,3.3-0.6,8.4-1.3,12l-8,42.7h-17.6l7.8-41.4c0.5-2.7,0.9-5.9,0.9-8.7c0-6.2-2.3-10.5-9.2-10.5
			c-8,0-18.2,9.6-21.4,26.8l-6.3,33.9H307.1z"/>
		<path class="st1" d="M426.3,103.2c-11,0-18.2,9.8-20.3,18.7c18.1,0.1,29.7-2.3,29.7-11.1C435.6,106,431.9,103.2,426.3,103.2
			 M443,160.8c-7.2,3.8-17,5.9-25.9,5.9c-20.3,0-30.1-12.5-30.1-30.4c0-22.1,16.2-46.2,41.5-46.2c14.4,0,23.6,8.3,23.6,20.6
			c0,18.8-19.7,24.8-48,24.2c-0.3,2.6,0.3,7.5,2,10.4c2.9,5,8.1,7.5,15,7.5c8.3,0,14.9-2.1,20.2-4.8L443,160.8z"/>
		<path class="st1" d="M494.4,103.2c-11,0-18.2,9.8-20.3,18.7c18.1,0.1,29.7-2.3,29.7-11.1C503.8,106,500,103.2,494.4,103.2
			 M511.2,160.8c-7.2,3.8-17,5.9-25.9,5.9c-20.3,0-30.1-12.5-30.1-30.4c0-22.1,16.2-46.2,41.5-46.2c14.4,0,23.6,8.3,23.6,20.6
			c0,18.8-19.7,24.8-48,24.2c-0.3,2.6,0.3,7.5,2,10.4c2.9,5,8.1,7.5,15,7.5c8.3,0,14.9-2.1,20.2-4.8L511.2,160.8z"/>
		<path class="st1" d="M521.4,165l8.6-45.2c2-10.4,3-21.7,3.7-28.1h15.2c-0.4,5-0.9,10.1-1.7,15.4h0.4c5-9.8,12.9-17,22.9-17
			c1.4,0,2.7,0.2,3.9,0.2l-3.5,17.2c-0.9-0.2-2.1-0.2-3.3-0.2c-12.5,0-20.5,12.6-23.3,28.3l-5.6,29.5H521.4z"/>
		<path class="st1" d="M587.8,98.4h1.3c1.3,0,2.2-0.7,2.2-1.8c0-1.2-0.9-1.8-2.2-1.8c-0.6,0-1,0-1.2,0.1V98.4z M586.6,94
			c0.6-0.1,1.5-0.2,2.4-0.2c1.3,0,2.2,0.3,2.8,0.8c0.5,0.4,0.8,1.1,0.8,1.9c0,1.3-0.8,2.1-1.8,2.5v0c0.7,0.3,1.2,1,1.4,2
			c0.3,1.3,0.5,2.3,0.7,2.7h-1.3c-0.2-0.3-0.4-1.1-0.6-2.3c-0.3-1.3-0.8-1.8-2-1.9h-1.2v4.2h-1.3V94z"/>
		<path class="st1" d="M589.5,90.1c-4.8,0-8.7,3.9-8.7,8.7c0,4.8,3.9,8.7,8.7,8.7c4.8,0,8.7-3.9,8.7-8.7
			C598.1,93.9,594.2,90.1,589.5,90.1 M589.5,91.4c4,0,7.3,3.3,7.3,7.3c0,4.1-3.3,7.3-7.3,7.3c-4.1,0-7.3-3.3-7.3-7.3
			C582.1,94.7,585.4,91.4,589.5,91.4"/>
	</g>
</g>
</svg>
